<?xml version="1.0" encoding="utf-8"?>
<!-- Generated by IcoMoon.io -->
<!DOCTYPE svg PUBLIC "-//W3C//DTD SVG 1.1//EN" "http://www.w3.org/Graphics/SVG/1.1/DTD/svg11.dtd">
<svg version="1.1" xmlns="http://www.w3.org/2000/svg" xmlns:xlink="http://www.w3.org/1999/xlink" width="64" height="64" viewBox="0 0 64 64">
<path d="M33.143 48.429v-25.571h-11.429v25.571q0 0.893 0.643 1.375t1.643 0.482h6.857q1 0 1.643-0.482t0.643-1.375zM16.857 18.286h6.964l-4.5-5.75q-0.929-1.107-2.464-1.107-1.429 0-2.429 1t-1 2.429 1 2.429 2.429 1zM41.429 14.857q0-1.429-1-2.429t-2.429-1q-1.536 0-2.464 1.107l-4.464 5.75h6.929q1.429 0 2.429-1t1-2.429zM54.857 24v11.429q0 0.5-0.321 0.821t-0.821 0.321h-3.429v14.857q0 1.429-1 2.429t-2.429 1h-38.857q-1.429 0-2.429-1t-1-2.429v-14.857h-3.429q-0.5 0-0.821-0.321t-0.321-0.821v-11.429q0-0.5 0.321-0.821t0.821-0.321h15.714q-3.321 0-5.661-2.339t-2.339-5.661 2.339-5.661 5.661-2.339q3.821 0 6 2.75l4.571 5.893 4.571-5.893q2.179-2.75 6-2.75 3.321 0 5.661 2.339t2.339 5.661-2.339 5.661-5.661 2.339h15.714q0.5 0 0.821 0.321t0.321 0.821z"></path>
</svg>
