<svg id="Слой_1" data-name="Слой 1" xmlns="http://www.w3.org/2000/svg" viewBox="0 0 60.79 60.78"><title>i3</title><path d="M41.34,1.14a25.17,25.17,0,0,0,3.84.59c1.87.08,3.79-.41,5.62-.17,2.33.31,5.2.45,6.71,1.86S59,7.59,59.26,9.81s-.49,4.33,0,6.34c2.85,12.94-8.64,25.4-21.61,23-6.37-1.2-10.6,1.65-14.06,6.24-1.71,2.26-2.81,5-4.14,7.52C16.71,58,13.18,60.24,8.84,59.5a9.31,9.31,0,0,1-7.6-7.77C.62,47.38,2.87,44,8.09,41.28c2.21-1.14,4.46-2.25,6.59-3.54A13.8,13.8,0,0,0,21.56,23C19.82,11.73,28.9,1.2,41.34,1.14ZM40.07,5.59c-.84.16-2.08.31-3.27.64-5.36,1.46-6.56,3.34-3.58,7.84A56.17,56.17,0,0,0,43.83,25.82c2.1,1.79,5.6,1.92,8.48,2.81.92-3.27,1.88-6.52,2.73-9.8a2.32,2.32,0,0,0-.35-1.8,20.55,20.55,0,0,0-2.57-2.45c-1.88-1.63-5-3-5.41-4.87C45.87,5.61,43.26,5.86,40.07,5.59Zm-12.23,8c-3.26,6.17-2.17,12.74,2.71,17.31a13.45,13.45,0,0,0,16.51,1.92A34.76,34.76,0,0,1,27.84,13.6Zm1,21.92L25.14,32c-2.37,6.76-7.84,9.78-13.49,12.61A26.58,26.58,0,0,0,7.45,47a4.36,4.36,0,0,0-.32,6.84,4.31,4.31,0,0,0,6.57-.5,28.49,28.49,0,0,0,2.81-4.85C19.15,43,22.38,38,28.88,35.52Zm24-30.68c-1,1.35-2.05,2.18-2,2.93S52,9.29,52.71,10.05c.78-.76,2-1.41,2.21-2.31C55.07,7.15,53.86,6.19,52.84,4.84Z"/></svg>