<svg id="Слой_1" data-name="Слой 1" xmlns="http://www.w3.org/2000/svg" viewBox="0 0 65 56.15"><title>i2</title><path d="M9.31,41.82c-3.63.29-6.77-.89-8-4.88s.8-6.78,4-8.39c5-2.51,6.23-7.06,7.32-11.79.19-.85-.36-1.86-.56-2.79Q10.75,7.9,9.42,1.81l1.15-1c3.29.87,6.76,1.36,9.82,2.74a9,9,0,0,0,7.07.61,6.93,6.93,0,0,1,3.3-.5,38.17,38.17,0,0,0,20.9-2.21c.86-.32,1.94,0,3.93,0-.84,4.2-1.38,8.22-2.5,12.07-1,3.53.61,10.4,3.57,12.64,1.39,1.06,2.8,2.09,4.18,3.16,2.61,2,3.89,4.61,2.77,7.87s-3.56,4.68-6.94,4.63a10.42,10.42,0,0,0-1.07,0C54.86,45,54.55,48,53.41,50.68c-1.76,4.17-4.92,5.24-9.12,3.9a10.86,10.86,0,0,0-3.18-.1c-5.33.06-10.66.09-16,.2a32.57,32.57,0,0,0-5.68.45c-3.73.75-6.24-1.06-7.6-4C10.58,48.34,10.19,45.2,9.31,41.82ZM50.25,6.17c-2.17.82-3.92,1.06-5.09,2C42.93,10,40.93,9.66,38.35,9a21.43,21.43,0,0,0-9.57-.45c-3.76.86-7,1.58-10.34-1.07-.82-.66-2.18-.64-4.11-1.15,1,2.95,1.7,5,2.42,7.11.28.8,1.08,1.82.82,2.34C15,21,16.24,28.16,9.37,31.26,7.68,32,4,33.31,6.21,36.33c2.05,2.76,3.94-.38,5.59-1.46,6-3.87,11.53-2,13.21,4.91.77,3.15.45,6.58.65,10.46H39.83c0-3.8-.57-7.13.11-10.17,1.61-7.2,7.23-9.18,13.32-5.1.93.63,1.76,1.58,2.77,1.85s2.4,0,2.84-.55a2.89,2.89,0,0,0-.33-2.84c-1.91-1.77-4.17-3.15-6.18-4.83-.9-.76-2-1.78-2.17-2.81-.72-5.38-4.53-10.71-.47-16.27C50.16,8.91,50,7.87,50.25,6.17ZM13.31,44.25,18,50.75c1.07-2.2,2.71-4.32,3.06-6.63.4-2.6-.08-6.18-3.36-6.33C16.5,37.73,15.09,41.53,13.31,44.25ZM51.71,44c-1.77-2.5-3.41-6.38-4.63-6.24-3.14.33-3.32,3.86-3.23,6.57.08,2.55.25,6.06,3.37,6.05C48.58,50.42,49.92,46.72,51.71,44Z"/><path d="M29.37,20.59c-2.23,1.49-3.63,3.16-4.79,3s-3.06-2.08-3-3.2,2-2.93,3.2-3S27.21,19,29.37,20.59Z"/><path d="M45.12,20.36C43,22,41.64,23.69,40.48,23.59s-3.16-1.93-3.19-3,1.83-3,3-3.2S42.89,18.86,45.12,20.36Z"/><path d="M28,28.47c3.09-3.16,6-3.17,8.91-.23C34.35,31.33,31.5,31.46,28,28.47Z"/></svg>