<svg id="fleece" xmlns="http://www.w3.org/2000/svg" viewBox="0 0 67.05 63.85"><title>i6</title><path d="M66,1V9.83c-9-.73-17.78-1-24,7.37,4.69,3.25,9.65,6.73,14.65,10.15,4.58,3.13,4.62,6,0,9.2C51.79,40,46.86,43.36,42,46.7,48.22,54.88,56.93,54.81,66,54v8.83H1.08V54.15c8.73.49,17.72,1,24.07-7.44-4.92-3.38-10-6.9-15.1-10.39C6.11,33.63,6,30.54,9.86,27.76c2.53-1.82,5.14-3.54,7.71-5.31l7.57-5.28c-6.26-8-15-8.29-24.11-7.29V1ZM47.58,32,33.51,22.24,19.48,32C23.92,35,27.86,37.83,32,40.43a3.66,3.66,0,0,0,3.21,0C39.24,37.86,43.17,35,47.58,32ZM4.17,3.83c-1,2.77.56,2.89,2.4,2.88,6.11,0,12.21,0,18.32,0H60.42c1.92,0,3.72,0,2.23-2.86ZM62.66,60.05l.85-1.21c-.94-.55-1.85-1.51-2.81-1.57-3-.21-6-.08-9-.08H7.13c-3.07,0-3.07.05-2.79,2.86ZM45.8,10.14c-4.59-1.51-7,1.25-9.71,3.1Q23.9,21.6,11.83,30.1c-.74.52-1,1.69-1.53,2.55,1,0,2.19.46,2.84,0C23.92,25.33,34.63,17.88,45.8,10.14Zm-24,43.26.6,1.32c2-.74,4.16-1.18,5.91-2.3,4.73-3,9.28-6.32,13.89-9.51,4.42-3.06,8.86-6.06,13.2-9.22.7-.51.9-1.72,1.33-2.6-1,.08-2.17-.13-3,.31-2,1.09-3.74,2.48-5.59,3.76ZM14.73,34.78l.09,1.13c3.9,2.71,7.73,5.51,11.73,8.05.91.58,2.4.26,3.63.35l.16-1.21c-4-2.77-7.89-5.65-12-8.24C17.48,34.3,16,34.78,14.73,34.78ZM36.88,19.5l0,1.37c3.89,2.69,7.71,5.49,11.72,8,.93.58,2.47.19,3.73.24l.1-1.09c-4-2.76-7.94-5.61-12-8.22C39.48,19.25,38.05,19.58,36.88,19.5ZM22.37,9l-.7,1.86c3.18,0,4.42,5.66,9.79,2ZM37,50.11l-.42,1.49,8.13,3.06.52-1.41C42.35,52.5,40.9,48,37,50.11Z"/></svg>