<svg id="spoke" xmlns="http://www.w3.org/2000/svg" viewBox="0 0 48.27 48.4"><title>i5</title><path d="M45.69,1.18c.55,3.49,1.44,7,1.59,10.46A181.25,181.25,0,0,1,47.37,33c-.28,3.72-1.93,7.56-3.78,10.88-2,3.61-7.14,5-11,3a104,104,0,0,1-15-9.08c-4.7-3.52-4.82-10.42-1-14.7a10.27,10.27,0,1,1,15,14,17.85,17.85,0,0,1-3,2.13L28,38.49c.78-.85,1.56-1.69,2.32-2.56a8.63,8.63,0,0,0-.62-12.4A8.47,8.47,0,1,0,19,36.69a97.46,97.46,0,0,0,14.09,8.5c4.81,2.33,10.69-1.39,10.64-6.4,0-1.56-1.51-3.13-1.48-4.68.13-9.48.47-19,.86-28.43a23.81,23.81,0,0,1,1.07-4.53Zm-.26,8.29c-2.35,7.83-2.09,22.82,0,25.25Z"/><path d="M20.38,44a10.19,10.19,0,0,1-9.27,3.53,8.51,8.51,0,0,1-7.74-6.12C-.83,28.25.4,15,2.81,1.79c0-.18.33-.31,1.29-1.18.7,3.34,1.7,6.17,1.81,9,.32,8.1.28,16.22.37,24.33,0,.49.08,1.16-.19,1.46-2.93,3.24-1.39,6,1.09,8.39,2.9,2.74,6.3,2.55,9.7.72,1-.55,2.05-1,3.08-1.53ZM3,34.33l1.07.05V9.45H3Z"/></svg>