<svg id="Слой_1" data-name="Слой 1" xmlns="http://www.w3.org/2000/svg" viewBox="0 0 67.13 66.86"><title>i7</title><path d="M16.12,52.85c-4,4.09-7.75,8.1-11.7,11.91-.76.73-2.23.72-3.38,1.06.43-1,.6-2.34,1.33-3.07,3.94-4,8-7.79,12-11.57C3.21,34.26,4.69,18.08,17.88,7.49A29.73,29.73,0,0,1,59.24,49.78C51.19,59.67,33.44,66.3,16.12,52.85Zm20.32,4.62A26.53,26.53,0,0,0,63.08,30.79,26.72,26.72,0,1,0,36.44,57.47Z"/><path d="M23.05,15.82a6.27,6.27,0,0,1,0-1.84,17.5,17.5,0,0,1,1.19-2.37A15.21,15.21,0,0,1,26,14a2.67,2.67,0,0,1,0,1.81c-.43,1.49-1,2.94-1.51,4.41L22.45,16.1Z"/><path d="M16.49,23.14l2-4.05c.51,1.44,1,2.88,1.53,4.34a1.63,1.63,0,0,1,0,1.09c-.53,1.05-1.15,2.05-1.73,3.08-.41-1-.86-2-1.23-3.08a3.66,3.66,0,0,1,0-1.1Z"/><path d="M29,23a6.56,6.56,0,0,1,.05-2.22,6.6,6.6,0,0,1,1.45-1.71c.44.52,1.21,1,1.27,1.56a24.52,24.52,0,0,1,0,5.21c-.08.63-1,1.16-1.53,1.73a8,8,0,0,1-1.23-2A10.24,10.24,0,0,1,29,23Z"/><path d="M55.65,23.21a4.28,4.28,0,0,1,0,1.48c-.4,1-1,1.92-1.46,2.88-.48-1-1-2-1.43-3a1.69,1.69,0,0,1,0-1.11c.49-1.46,1-2.91,1.58-4.36L56.17,23Z"/><path d="M23.06,30.77a8.27,8.27,0,0,1,0-2.23,9.34,9.34,0,0,1,1.19-2,9.25,9.25,0,0,1,1.66,2,3.32,3.32,0,0,1,.05,2.2c-.46,1.45-1.13,2.84-1.72,4.25l-1.74-4Z"/><path d="M35,30.69a7.82,7.82,0,0,1,0-2.22,8.54,8.54,0,0,1,1.25-1.92,11.59,11.59,0,0,1,1.53,2.08,3,3,0,0,1,.05,1.84c-.39,1.52-.91,3-1.37,4.51l-2.16-4Z"/><path d="M35,15.72a10.24,10.24,0,0,1,.05-2.6c.16-.57.83-1,1.27-1.5.48.47,1.3.9,1.37,1.43a19.14,19.14,0,0,1,.08,4.84c-.1.8-.9,1.52-1.38,2.27A11.09,11.09,0,0,1,35,18a7.19,7.19,0,0,1,0-2.23Z"/><path d="M46.79,15.9a4.74,4.74,0,0,1,.05-1.85,17.05,17.05,0,0,1,1.6-2.44A16.72,16.72,0,0,1,49.66,14a3.24,3.24,0,0,1,0,1.85c-.44,1.46-1,2.87-1.56,4.31l-1.85-4Z"/><path d="M46.83,30.63a6.78,6.78,0,0,1,.05-2.21,7.64,7.64,0,0,1,1.35-1.87c.48.58,1.26,1.11,1.37,1.76a12.42,12.42,0,0,1,0,4.08A9.94,9.94,0,0,1,48.34,35a18.66,18.66,0,0,1-1.51-2.52,5.18,5.18,0,0,1,0-1.85Z"/><path d="M17.09,37.94a3.84,3.84,0,0,1,0-1.48A22.78,22.78,0,0,1,18.6,34,11.12,11.12,0,0,1,20,36.62a7.16,7.16,0,0,1,0,3.32,9.47,9.47,0,0,1-1.57,2.46,21.29,21.29,0,0,1-1.32-2.61A6,6,0,0,1,17.09,37.94Z"/><path d="M29,37.93a4,4,0,0,1,0-1.47A24.29,24.29,0,0,1,30.5,34a11.2,11.2,0,0,1,1.37,2.6,7.26,7.26,0,0,1,0,3.31,9.52,9.52,0,0,1-1.53,2.47A22.14,22.14,0,0,1,29,39.77,5.94,5.94,0,0,1,29,37.93Z"/><path d="M55.63,39.69a3.8,3.8,0,0,1-.12,1.46c-.13.48-.83,1.25-1.06,1.18-.6-.18-1.46-.71-1.52-1.18A21.25,21.25,0,0,1,52.82,36c.09-.72,1-1.33,1.59-2a7.93,7.93,0,0,1,1.17,2A19.24,19.24,0,0,1,55.63,39.69Z"/><path d="M23.05,45.42a5,5,0,0,1,.05-1.85,12.31,12.31,0,0,1,1.42-2.1A7.42,7.42,0,0,1,26,43.68a8.83,8.83,0,0,1,0,3.69,8.86,8.86,0,0,1-1.54,2.48,21.08,21.08,0,0,1-1.34-2.58A6,6,0,0,1,23.05,45.42Z"/><path d="M37.85,46.73a4.38,4.38,0,0,1-.13,1.67c-.18.56-.87,1-1.33,1.44-.46-.46-1.24-.88-1.32-1.4A15.59,15.59,0,0,1,35,44a8.58,8.58,0,0,1,1.34-2.55A17.71,17.71,0,0,1,37.81,44C38,44.52,37.85,45.21,37.85,46.73Z"/><path d="M49.66,46a6.44,6.44,0,0,1,0,2.2c-.25.65-1,1.12-1.45,1.67-.44-.5-1.16-1-1.25-1.53a12.25,12.25,0,0,1-.06-4,10.46,10.46,0,0,1,1.55-2.79,23.91,23.91,0,0,1,1.27,2.66,6.28,6.28,0,0,1,0,1.84Z"/><path d="M43.77,23.23a5.12,5.12,0,0,1,0,1.84,19.16,19.16,0,0,1-1.49,2.54,22.64,22.64,0,0,1-1.33-2.71,3.12,3.12,0,0,1,0-1.84c.42-1.36,1-2.66,1.51-4L44.29,23Z"/><path d="M43.75,38.22a7.68,7.68,0,0,1,0,2.2,9.16,9.16,0,0,1-1.21,2,9.61,9.61,0,0,1-1.54-2,3.71,3.71,0,0,1-.05-2.19c.33-1.42.83-2.79,1.26-4.19l2.26,3.85Z"/><path d="M32.38,8.1l-1.81,4.65c-.51-.56-1.38-1.06-1.46-1.67C28.9,9.42,28.6,7.39,32.38,8.1Z"/><path d="M32.45,53.37c-3.73.83-3.6-1.09-3.37-2.8.09-.62.91-1.14,1.4-1.7Z"/></svg>