<svg id="Слой_1" data-name="Слой 1" xmlns="http://www.w3.org/2000/svg" viewBox="0 0 56.29 56.43"><title>i4</title><path d="M28.19,55.34a24.62,24.62,0,0,1-24-30.7c.57-2.25.51-3.8-1-5.76A10.65,10.65,0,0,1,4.85,4.33a10.79,10.79,0,0,1,14.94,0c1.7,1.63,3.09,1.93,5.46,1.85,5.25-.18,10-.27,14.66-3.79,3.78-2.86,9.55-.67,12.67,3.2s3.63,9,.68,12.86c-1.77,2.31-1.74,4.19-1.13,6.79A24.59,24.59,0,0,1,28.19,55.34ZM23.84,10.75C23,19.91,19.37,23.39,11,23.86a3.34,3.34,0,0,0-2.4,1.91C6.22,33,9.54,42.09,16.19,47a20.17,20.17,0,0,0,23.49.25c6.89-4.81,10.35-13.89,8-21.37a3.28,3.28,0,0,0-2-2c-9.68-1.19-12-3.33-13.41-13.06ZM12.4,5.88a6.73,6.73,0,1,0,6.69,6.66A6.78,6.78,0,0,0,12.4,5.88Zm38.19,6.69A6.72,6.72,0,1,0,44,19.33,6.77,6.77,0,0,0,50.59,12.57Z"/><path d="M40,33l3.58,2.11c-3.39,5.54-8.13,8.51-14.3,8.89-7,.44-12.41-2.67-16.58-8.78l3.51-2.16C24.62,41.84,32.27,41.89,40,33Z"/><path d="M15.37,12.5c-1.29,1-2.21,2.27-2.8,2.13-.91-.22-1.59-1.38-2.36-2.14.73-.68,1.41-1.84,2.2-1.91S14,11.56,15.37,12.5Z"/><path d="M46.87,12.44c-1.28,1.06-2.17,2.32-2.77,2.19-.9-.2-1.6-1.35-2.39-2.1.71-.7,1.38-1.87,2.16-1.95S45.51,11.54,46.87,12.44Z"/></svg>