<?xml version="1.0" encoding="utf-8"?>
<!-- Generated by IcoMoon.io -->
<!DOCTYPE svg PUBLIC "-//W3C//DTD SVG 1.1//EN" "http://www.w3.org/Graphics/SVG/1.1/DTD/svg11.dtd">
<svg version="1.1" xmlns="http://www.w3.org/2000/svg" xmlns:xlink="http://www.w3.org/1999/xlink" width="59" height="64" viewBox="0 0 59 64">
<path d="M59.429 23.107q0 0.786-0.929 1.714l-12.964 12.643 3.071 17.857q0.036 0.25 0.036 0.714 0 0.75-0.375 1.268t-1.089 0.518q-0.679 0-1.429-0.429l-16.036-8.429-16.036 8.429q-0.786 0.429-1.429 0.429-0.75 0-1.125-0.518t-0.375-1.268q0-0.214 0.071-0.714l3.071-17.857-13-12.643q-0.893-0.964-0.893-1.714 0-1.321 2-1.643l17.929-2.607 8.036-16.25q0.679-1.464 1.75-1.464t1.75 1.464l8.036 16.25 17.929 2.607q2 0.321 2 1.643z"></path>
</svg>
