<svg id="Слой_1" data-name="Слой 1" xmlns="http://www.w3.org/2000/svg" viewBox="0 0 451 469"><defs><style>.cls-1{fill:#71625b}.cls-2{fill:#c22828}</style></defs><path class="cls-1" d="M281 176a31 31 0 0 1 5 2l11 7c9 6 11 15 8 26l-1 20v37l2 30 1 20h-3c-14-1-27 1-40 4-14 3-28 5-42 2s-28-4-42-3a9 9 0 0 1-2 0l2-12 5-17c2-5 1-12 1-18l1-42c0-8-1-16-5-23-1-2-2-4 0-5l14-17 6-4c-1 7-2 14-1 20l5 15v4c-11 9-13 20-10 33 2 11 5 22 12 32 10 13 23 18 40 17 12-1 24-5 34-13 11-9 16-20 16-33 0-10 0-20-3-30a35 35 0 0 0-10-15l-1-3c1-11 1-22-3-34z"/><path class="cls-1" d="M177 200v-24a106 106 0 0 1 8-37c7-15 19-22 35-25 16-2 31 2 46 7l12 8c11 11 23 38 23 54l-3-2-16-9a14 14 0 0 1-4-3c-5-7-12-12-22-11-3 1-6 3-10 3-2 1-4 2-6 1-13-4-24 0-32 11a26 26 0 0 1-8 6c-10 5-17 12-22 21zM203 262c-3-11-6-22 2-31 18-24 53-30 77-12 11 8 13 19 12 31h-11c-21-1-42-1-63 6l-17 6zm25-35l3-6-1-2a6 6 0 0 0-2 1 8 8 0 0 0-1 3c-1 3-3 4-6 3h-3v1l4 2c-3 5-3 5 0 7 2-6 2-6 10-4l2-1v-1zm46-5l-10-4 5 5-2 3v1l4-2 5 3-2-6z"/><path class="cls-2" d="M114 137l-3 7-4-1 4-8-9-5-4 7-3-2 3-7-8-5-4 7-4-2 4-7-8-4-3 6-3-1a5 5 0 0 1 0-2c2-6 2-6-4-9l-4-2-1 3-2 3-3-2 1-6c-2-3-6-4-9-6-2 1-2 8-7 3 1-2 2-4 1-6s-3-2-6-4l-2 6c-5 0-5-1-3-5l9-25 44 32v-8c2-15 13-22 27-17 8 2 15 6 22 10l16 10-10 21-5-6c-9-8-17-17-28-22-10-4-14-3-15 10-1 5 1 8 5 10l31 23-6 15c-1 2-2 2-5 0 1-2 3-5 2-7s-3-3-6-4zM395 111l12 5c10 6 12 14 8 24a39 39 0 0 1-5 10l-23 27-19-14 10-7c8-6 16-12 22-20a41 41 0 0 0 3-4c4-7 2-10-5-13l-3-1c-5-1-8 0-11 3l-29 27-13-9v-6l7 5 5-6-6-4 2-4 7 5 6-7-6-5 2-3 7 5 7-8-6-5 2-3 6 5 6-7-6-4 3-4 6 5 7-9-5-4 2-4 7 4 7-9-5-3 2-4c3 1 5 3 7 2 2 0 3-3 5-5l-6-3 2-5 27 17z"/><path class="cls-1" d="M268 253h22c3 0 4 1 4 3 0 12-4 23-15 30l-15 9c-18 9-52 4-60-27 0-2 0-3 2-4a111 111 0 0 1 42-11h20z"/><path class="cls-2" d="M75 144c3 0 8 6 10-2l4 2-3 5 7 8 6-3 2 3c-6 2-6 6-4 11a5 5 0 0 1 0 2c-1 3 1 4 4 5 4 1 4 1 2 6-6-4-8 0-10 5l-4 7 5 6-4 3-5-6-7 5a3 3 0 0 0 0 3 38 38 0 0 0 1 5c-3 2-5 2-6-2 0-2-2-3-4-2a18 18 0 0 1-4 0c-7 1-7 1-8 8h-4v-7l-19-9-4 6-4-1v-1c5-6 3-10-2-14a16 16 0 0 1-4-5c-2-4-4-4-7-3a30 30 0 0 1-4 2l-1-5 3-1 4-2-4-10a4 4 0 0 0-2-2 53 53 0 0 0-7 0v-4l1-1c7 0 6 0 7-7 1-5 1-9-5-10l2-5 6 3 10-13-4-5 3-3 1 1c3 8 9 4 15 4l1-2a25 25 0 0 0 1-4h4a6 6 0 0 1 0 2c0 3 0 6 4 6l2 3c0 2 0 3-3 3a41 41 0 0 0-10 1c-13 4-19 17-16 31 4 16 22 29 39 26 13-2 23-15 20-27a18 18 0 0 0-4-8c-3-2-3-5-1-8zM321 105v-7c0-2-4-2-6-3l-7-4-6 5-3-3 6-6-7-8-7 3-1-4v-1c5-1 6-4 5-9-2-7-2-7-9-9v-3h1c7-1 7-1 9-7a56 56 0 0 1 2-6l3-7-6-3 1-5h1c6 5 10 3 13-2a21 21 0 0 1 6-5c3-2 3-3 2-6a35 35 0 0 1-2-5l5-2 3 7 10-4 1-5c0-3 1-4 5-3l1 7h12l3-1a31 31 0 0 0 2-5l4 2-2 6 13 9 5-4 3 3c-1 3-6 3-5 7l2 10h5v5a12 12 0 0 1-3 0c-3 0-4 1-4 4 0 2-1 3-3 3-3 0-4-1-4-4 0-19-16-29-34-23-15 5-26 23-23 39 3 12 15 22 27 19 3 0 7-3 10-6 2-1 4-2 6 0v4c-2 4 0 5 3 7l-1 3-5-2-7 8 2 5-2 2-1-1c-2-4-5-5-9-3a3 3 0 0 1-2 0c-4 0-6 2-7 7 0 3-3 1-5 1z"/><path class="cls-1" d="M365 311l-29 8h-21c-2 0-3-1-3-3l-2-45c0-15 11-23 25-18 11 4 18 12 21 23l4 14 5 21zM156 259l-13-2c-12-2-18-9-18-21a82 82 0 0 1 2-12c2-11 10-18 22-18a82 82 0 0 1 17 1c11 2 18 12 18 23l-2 22c0 2-1 4-4 4l-22 3z"/><path class="cls-2" d="M274 374l15-7 3 10c5 18 9 35 9 53a60 60 0 0 1-2 13c-4 15-13 22-27 24-10 0-17-1-23-4l1-5c8 3 16 4 24 1-12 0-21-3-27-15l10 6c11 5 22 0 26-11 3-8 3-27 0-35-5 5-5 9-3 13l-2 4-4-5c-4 2-10 1-8 9h-5v-6l-10-5c-2 2-4 7-8 1 8-4 3-9 1-14l-5 3-3-4c8-2 6-7 5-13l-8 1-1-5 8-1c1-5 1-5 9-7l1 14a54 54 0 0 0 5 14c4 6 9 7 15 6s10-6 9-12l-2-17-3-6z"/><path class="cls-1" d="M172 320c-17-10-34-5-52-5l1-4 13-34c3-9 10-14 19-14a193 193 0 0 1 20 1c4 0 7 2 7 6 2 7 2 14 0 21l-8 29zM280 211l-22-7c-12-3-24 1-35 6a74 74 0 0 0-9 5c-3 1-4 1-5-2-5-8-5-17-3-27a92 92 0 0 1 4-9c3-8 13-13 23-11 8 1 14 1 21-3 5-2 10 0 14 3 6 4 11 9 12 17 2 10 2 19 0 28zm-28-20c0 6 4 11 10 11s10-6 10-12-5-11-10-11-10 6-10 12zm-37-2c0 6 4 11 10 11s10-5 10-11-5-11-10-11-10 5-10 11z"/><path class="cls-2" d="M429 234c11-1 14-14 8-29 2-2 3-2 5 0 8 12 9 24 3 36-4 8-11 11-19 13-12 3-24 2-35-2a5 5 0 0 1-3-3c-2-13-1-26 3-38a33 33 0 0 1 5-9c7-10 20-9 26 1 5 7 6 15 6 23l1 8zm-6 0l-2-17-3-2-21-1-2 1-2 13 2 1c9 3 18 5 28 5zm-24 2a6 6 0 0 0 0 12 6 6 0 0 0 6-6 6 6 0 0 0-6-6zm11 9c0 3 2 4 5 4s4-2 4-4-2-5-4-5c-3 0-4 3-5 5zM167 392l1-5 6 2 10-12-3-5 4-3c2 7 7 6 12 5a24 24 0 0 1 7 0 66 66 0 0 1 8 2l4-5 3 2v1c-3 3-2 6 1 9 3 2 4 6 7 10l6-3c2 5 2 6-2 7-3 0-4 1-4 4a13 13 0 0 1 0 5c-1 4-2 7 5 8l-3 5-5-3a28 28 0 0 1-14 13v2a45 45 0 0 0 0 5l-5 1-1-5-20-4-4 5-4-3 5-6-6-9a4 4 0 0 0-3-1 37 37 0 0 0-5 1l-1-4 1-1c5-1 5-1 5-7a10 10 0 0 1 0-3c2-5 1-8-5-8zm15 10l4 13a12 12 0 0 0 21 0 27 27 0 0 0 2-25c-2-5-6-7-12-7s-9 2-11 7l-4 12z"/><path class="cls-1" d="M345 254c-12-8-23-7-35-1h-1l-1-37c0-3 1-4 4-6 16-12 36 0 38 16l-2 21-3 7z"/><path class="cls-2" d="M164 345l-9 21 11 4-3 5a51 51 0 0 1-7-2c-3-1-5 0-6 4a27 27 0 0 1-1 2l11 4a4 4 0 0 1 0 1c-3 7-3 7-10 4-4-1-5-1-6 3l-9 21c-3 6-4 6-11 4v-3l7-28c1-3 0-4-2-4l-7-3c2-2 3-5 5-5l7 2 1-6a58 58 0 0 0-7-1c-3-1-4-2-4-5v-5c4 1 7 1 10 3 3 0 4 0 4-3l4-14c0-2 1-3 3-2l19 3zm-10 9c0-3-2-5-6-5-2 1-4 3-4 6s2 5 6 5c2 0 4-3 4-6zm-6 15l1-1c-2-1-3-3-5-3-3-1-4 1-4 3-1 3 2 4 4 4l4-3zM324 358l4 3 4-2a6 6 0 0 0-3-5c-3-3-7-1-11 1s-6 6-5 10c0 4 3 5 7 6a107 107 0 0 0 13 3c15 1 19 17 14 26-7 14-26 19-38 11l-1-1 2-4 14 3c7 0 11-4 12-9s-2-10-8-13a120 120 0 0 0-14-5c-6-2-11-6-12-13s2-12 7-16 11-7 18-6a11 11 0 0 1 10 11v1c0 5-7 9-11 7a4 4 0 0 1-2-8zM159 40l36 50-23 10-8-19-13-32c-1-2-1-4 2-5a73 73 0 0 0 6-4zm18 39a6 6 0 0 0-6 5 6 6 0 0 0 11 1 6 6 0 0 0-5-6zm-3-8v-2l-5-4c-2 0-4 2-5 5 0 2 3 5 5 4l5-3zM215 61h-4l-4-19a21 21 0 0 1 3-1l35 2c2 0 3 1 3 3 1 7 1 7-6 9l-7 1a16 16 0 0 0-1-3 3 3 0 0 0-2-2l-2 2 1 2-2 3-2-3c-1-2-2-3-4-2v6c-5 2-3-4-5-5h-3v7zM153 36c-2 2-3 3-4 1-3-3-6-2-7 1l-4 2v-7c-1-3-3-4-6-4l-2-1 2-2c7-1 7-2 3-8l-1-1c2-2 3-2 4 0 3 4 6 4 8 0l4-3c0 4-3 6 0 9l5 2 3 1-7 4c-2 3 1 4 2 6z"/><path class="cls-2" d="M311 401a7 7 0 1 1-1-15h1a7 7 0 0 1 0 15zM398 132l-2 2-28 13c-3-3-3-3 2-6 8-4 17-8 27-10zM126 121l-4 3-18-28 1-2 3 2 18 25z"/><path class="cls-1" d="M260 187l3 4-3 5-4-4 2-5zM225 195l-3-4a3 3 0 0 1 4-4 6 6 0 0 1 4 4l-3 4z"/></svg>