<svg id="logo" data-name="Слой 1" xmlns="http://www.w3.org/2000/svg" viewBox="0 0 200 173"><path d="M131 52a25 25 0 0 1 4 2l10 6c5 4 8 12 5 17-2 6-2 13-1 19a155 155 0 0 1 0 28c-1 6 0 12 1 17l1 20v3h-8c-9-1-17 2-26 4-11 2-22 3-34 1-11-2-21-3-32-2l-2-1 4-19a54 54 0 0 0 2-18 293 293 0 0 1 1-32c0-7-1-13-4-19v-4l11-13c1-2 3-2 5-3a35 35 0 0 0 4 29l-2 2a24 24 0 0 0-8 21c2 10 4 20 10 28 7 11 17 16 30 15 11 0 21-3 30-10a33 33 0 0 0 12-26c0-8 0-16-3-24a28 28 0 0 0-7-12 4 4 0 0 1-1-2c0-9 1-18-2-27z"/><path d="M49 71l-1-1c-1-16 0-32 7-47C60 11 70 5 82 3s24 1 36 5c9 4 15 11 20 20 4 9 7 19 9 29a5 5 0 0 1 0 1l-7-5a60 60 0 0 1-17-11c-5-6-12-6-20-2a8 8 0 0 1-5 1c-10-3-19 0-25 8a24 24 0 0 1-7 5c-7 4-13 9-16 16l-1 1zM141 111c-25-1-49-2-73 10l-1-8c-2-9 0-17 8-23 15-14 38-16 55-5 9 6 12 15 11 26zm-57-11c1-6 1-6 7-4a7 7 0 0 0 2 0l1-1-5-3a19 19 0 0 0 1-2v-4l-2 3c-1 2-3 3-5 2a7 7 0 0 0-3 1l4 2c-1 2-3 4 0 6zm33-15l4 4-2 3h1l3-2 4 3-2-5z"/><path d="M121 113h17c2 0 2 0 2 2 1 10-2 18-11 24l-12 7c-15 8-41 3-47-21-1-2 0-3 1-3a87 87 0 0 1 33-9h17zM197 159l-23 6h-17a2 2 0 0 1-2-2l-2-36c-1-14 12-17 20-14s14 9 17 18l3 11 4 17zM32 117l-11-1c-10-1-14-7-14-17a58 58 0 0 1 1-9c2-9 9-14 18-14a69 69 0 0 1 14 1 17 17 0 0 1 13 18l-1 17c0 2-1 3-3 3l-17 2zM44 166a36 36 0 0 0-20-5l-21 1 3-8 8-22c2-8 8-11 15-11a143 143 0 0 1 16 0c3 1 5 2 6 5l-1 16-6 24zM130 80c-10-4-19-8-29-7-9 2-18 6-27 11l-3-10c-2-8 0-16 4-23 4-6 11-8 18-7a8 8 0 0 1 3 0c4 2 7 1 11-1 5-3 10-2 15 1 7 5 8 13 9 21l-1 15zm-7-17c0-5-3-9-8-9s-8 5-8 9 4 9 8 9 8-4 8-9zm-29-1c0-5-3-9-8-9s-8 4-8 9 4 9 8 9 8-4 8-9z"/><path d="M181 113c-9-6-18-5-29 1l1-31a5 5 0 0 1 1-4c13-10 28-1 31 11a35 35 0 0 1-1 18 39 39 0 0 1-3 5zM118 64l-5 3a4 4 0 0 1-2-3l2-3 5 3zM86 67l-2-4a3 3 0 0 1 3-3 4 4 0 0 1 3 3l-2 4z"/></svg>