<svg id="loop" data-name="Слой 1" xmlns="http://www.w3.org/2000/svg" viewBox="0 0 60 60"><title>loop</title><path d="M41.43,25.43a15.44,15.44,0,0,0-4.7-11.31,15.41,15.41,0,0,0-11.3-4.69,15.41,15.41,0,0,0-11.31,4.69A15.41,15.41,0,0,0,9.43,25.43a15.41,15.41,0,0,0,4.69,11.3,15.42,15.42,0,0,0,11.31,4.7,15.41,15.41,0,0,0,11.3-4.7A15.41,15.41,0,0,0,41.43,25.43ZM59.71,55.14a4.61,4.61,0,0,1-4.57,4.57,4.26,4.26,0,0,1-3.21-1.35L39.68,46.14a24.39,24.39,0,0,1-14.25,4.43,24.73,24.73,0,0,1-9.77-2A24.6,24.6,0,0,1,2.27,35.2a25.09,25.09,0,0,1,0-19.54,25.2,25.2,0,0,1,5.35-8,25,25,0,0,1,8-5.36,25.09,25.09,0,0,1,19.54,0,25.18,25.18,0,0,1,8,5.36,25,25,0,0,1,5.36,8,24.73,24.73,0,0,1,2,9.77,24.39,24.39,0,0,1-4.43,14.25L58.39,51.93A4.37,4.37,0,0,1,59.71,55.14Z"/></svg>