<svg id="twitt" xmlns="http://www.w3.org/2000/svg" viewBox="0 0 616 500.37"><defs><style>.cls-1{fill:#fff;}</style></defs><title>twitt</title><path class="cls-1" d="M614,60.44a250.68,250.68,0,0,1-72.09,19.77A126,126,0,0,0,597.1,10.8a253.14,253.14,0,0,1-79.78,30.48A125.64,125.64,0,0,0,303.39,155.74,356.45,356.45,0,0,1,44.64,24.57,125.69,125.69,0,0,0,83.5,192.15a125.55,125.55,0,0,1-56.87-15.76V178A125.67,125.67,0,0,0,127.32,301.07a127.08,127.08,0,0,1-33.08,4.39,120.54,120.54,0,0,1-23.63-2.33,125.61,125.61,0,0,0,117.25,87.2A251.92,251.92,0,0,1,31.94,444,266.59,266.59,0,0,1,2,442.26a354.9,354.9,0,0,0,192.44,56.48c231,0,357.19-191.29,357.19-357.18l-.42-16.26A250.66,250.66,0,0,0,614,60.44Z"/></svg>